<svg width="34" height="34" viewBox="0 0 576 512" fill="none" xmlns="http://www.w3.org/2000/svg">
<path d="M504.717 320H211.572L218.117 352H486.535C501.936 352 513.351 366.301 509.938 381.319L504.421 405.595C523.112 414.668 536 433.828 536 456C536 487.202 510.481 512.444 479.176 511.994C449.353 511.565 424.826 487.363 424.021 457.547C423.581 441.26 430.106 426.498 440.824 415.999H231.176C241.553 426.165 248 440.326 248 456C248 487.813 221.472 513.431 189.33 511.938C160.79 510.613 137.579 487.553 136.079 459.021C134.921 436.987 146.515 417.566 164.13 407.435L93.883 64H24C10.745 64 0 53.255 0 40V24C0 10.745 10.745 0 24 0H126.529C137.93 0 147.757 8.021 150.042 19.19L159.208 64H551.99C567.391 64 578.806 78.301 575.393 93.319L528.12 301.319C525.637 312.246 515.923 320 504.717 320ZM403.029 192H360V132C360 125.373 354.627 120 348 120H324C317.373 120 312 125.373 312 132V192H268.971C258.28 192 252.926 204.926 260.486 212.485L327.515 279.514C332.201 284.2 339.799 284.2 344.486 279.514L411.515 212.485C419.074 204.926 413.72 192 403.029 192Z" fill="CurrentColor"/>
</svg>
