<svg width="34" height="34" viewBox="0 0 504 512" fill="none" xmlns="http://www.w3.org/2000/svg">
<path d="M458.515 66.9277C479.731 57.0737 504 72.5507 504 95.9436V339.044C504 349.57 498.839 359.451 490.157 365.402C454.32 389.966 415.822 406.26 367.652 406.26C300.279 406.26 256.022 371.477 202.435 371.477C151.582 371.477 116.311 381.535 88 393.599V488C88 501.255 77.255 512 64 512H48C34.745 512 24 501.255 24 488V101.945C9.497 91.8246 0 75.0257 0 55.9996C0 24.2956 26.345 -1.25435 58.338 0.0476477C86.806 1.20565 110.117 24.0156 111.889 52.4516C112.409 60.7936 111.079 68.7617 108.303 76.0136C129.039 68.3837 151.393 63.9996 176.348 63.9996C243.721 63.9996 287.978 98.7826 341.565 98.7826C382.061 98.7826 424.177 82.8766 458.515 66.9277ZM88 134.63V205.12C117 194.45 139.18 187.29 161.6 184.21V112.64C138.1 114.81 121.16 122.43 88 134.63ZM308.8 143.82C282.383 139.148 258.914 129.841 235.2 122.48V189.9C259.375 196.606 282.766 206.344 308.8 212.21V143.82ZM161.6 184.21V254.25C194.396 251.272 215.51 253.615 235.2 258.05V189.9C209.953 182.865 188.619 180.477 161.6 184.21ZM235.2 326.44C261.538 331.092 284.932 340.367 308.8 347.78V280.37C284.523 273.624 261.26 263.92 235.2 258.05V326.44ZM88 342.1C111.62 333.71 135.79 328.26 161.6 325.54V254.25C135.49 256.6 114.24 262.29 88 271.61V342.1ZM456 120.5C434.7 129.35 409.41 138.14 382.4 142.97V214.88C409.71 210.52 432.43 200.78 456 190.99V120.5ZM456 330.46V259.97C433.81 274.17 407.22 282.58 382.4 285.99V357.57C407.47 355.19 430.89 346.53 456 330.46ZM308.8 212.21V280.37C334.464 287.504 355.416 289.712 382.4 285.99V214.88C356.401 219.067 332.457 217.556 308.8 212.21Z" fill="CurrentColor"/>
</svg>
