<svg width="22" height="22" viewBox="0 0 512 513" fill="none" xmlns="http://www.w3.org/2000/svg">
<path d="M504.971 199.363L482.344 176.736C472.971 167.363 457.775 167.363 448.403 176.736L442.746 182.393L329.608 69.2557L335.265 63.5988C344.638 54.2257 344.638 39.0297 335.265 29.6577L312.638 7.02975C303.265 -2.34325 288.069 -2.34325 278.697 7.02975L154.246 131.481C144.873 140.854 144.873 156.05 154.246 165.422L176.873 188.049C186.246 197.422 201.442 197.422 210.814 188.049L216.471 182.392L256.069 221.99L175.029 303.03L169.372 297.373C156.875 284.876 136.614 284.876 124.117 297.373L9.37275 412.119C-3.12425 424.616 -3.12425 444.877 9.37275 457.374L54.6277 502.629C67.1247 515.126 87.3857 515.126 99.8828 502.629L214.628 387.884C227.125 375.387 227.125 355.126 214.628 342.629L208.971 336.972L290.011 255.932L329.609 295.53L323.952 301.187C314.579 310.56 314.579 325.756 323.952 335.128L346.579 357.755C355.952 367.128 371.148 367.128 380.52 357.755L504.971 233.304C514.343 223.932 514.343 208.736 504.971 199.363Z" fill="CurrentColor"/>
</svg>
