<svg width="22" height="22" viewBox="0 0 512 512" fill="none" xmlns="http://www.w3.org/2000/svg">
<path d="M256 0C344.366 0 416 71.634 416 160C416 248.366 344.366 320 256 320C167.634 320 96 248.366 96 160C96 71.634 167.634 0 256 0ZM439.283 333.821L367.97 315.993C293.047 369.883 202.232 357.857 144.03 315.993L72.717 333.821C29.981 344.505 0 382.903 0 426.955V464C0 490.51 21.49 512 48 512H464C490.51 512 512 490.51 512 464V426.955C512 382.903 482.019 344.505 439.283 333.821Z" fill="CurrentColor"/>
</svg>
