<svg width="30" height="30" viewBox="0 0 512 512" xmlns="http://www.w3.org/2000/svg">
<path fill="currentColor" d="M493.397 24.6145L389.397 0.617465C378.083 -1.99354 366.518 3.86946 361.941 14.5485L313.941 126.545C311.89 131.33 311.451 136.651 312.689 141.706C313.926 146.762 316.774 151.278 320.803 154.574L381.42 204.17C345.447 280.845 282.482 344.678 204.171 381.418L154.575 320.802C151.279 316.774 146.762 313.926 141.707 312.688C136.651 311.451 131.33 311.89 126.546 313.94L14.5486 361.94C3.87261 366.515 -1.99439 378.079 0.61761 389.396L24.6146 493.396C27.1086 504.203 36.7476 511.999 47.9996 511.999C304.087 511.999 512 304.467 512 47.9995C512 36.8235 504.286 27.1265 493.397 24.6145Z"/>
</svg>
