<svg width="44" height="44" viewBox="0 0 640 320" fill="none" xmlns="http://www.w3.org/2000/svg">
<path d="M640 24V296C640 309.255 629.255 320 616 320H24C10.745 320 0 309.255 0 296V24C0 10.745 10.745 0 24 0H616C629.255 0 640 10.745 640 24ZM96 288C96 252.654 67.346 224 32 224V288H96ZM96 32H32V96C67.346 96 96 67.346 96 32ZM400 160C400 106.979 364.184 64 320 64C275.816 64 240 106.979 240 160C240 213.012 275.814 256 320 256C364.167 256 400 213.031 400 160ZM608 224C572.654 224 544 252.654 544 288H608V224ZM608 32H544C544 67.346 572.654 96 608 96V32ZM277.563 203.527C277.563 196.05 281.48 191.955 289.136 191.955H304.267V152.077C304.267 146.914 304.801 141.574 304.801 141.574H304.445C304.445 141.574 302.666 144.244 301.597 145.312C297.146 149.585 291.093 149.763 285.931 144.244L280.413 138.013C275.071 132.672 275.429 126.797 280.947 121.634L302.667 101.695C307.116 97.6 311.033 95.998 317.087 95.998H329.192C336.848 95.998 340.941 99.914 340.941 107.57V191.954H356.429C364.084 191.954 368.001 196.048 368.001 203.526V212.427C368.001 219.904 364.084 223.999 356.429 223.999H289.136C281.48 223.999 277.563 219.904 277.563 212.427V203.527Z" fill="CurrentColor"/>
</svg>
