<svg width="40" height="40" viewBox="0 0 496 496" fill="none" xmlns="http://www.w3.org/2000/svg">
<path d="M362.72 125.28C331.458 96.008 290.888 79.962 247.848 80C170.39 80.068 103.52 133.178 85.057 206.85C83.713 212.213 78.935 216 73.406 216H16.103C8.605 216 2.909 209.193 4.296 201.824C25.933 86.924 126.813 0 248 0C314.448 0 374.791 26.136 419.315 68.685L455.03 32.97C470.149 17.851 496 28.559 496 49.941V184C496 197.255 485.255 208 472 208H337.941C316.559 208 305.851 182.149 320.97 167.029L362.72 125.28ZM24 288H158.059C179.441 288 190.149 313.851 175.03 328.971L133.28 370.721C164.542 399.994 205.115 416.04 248.156 416.001C325.574 415.931 392.471 362.857 410.943 289.152C412.287 283.789 417.065 280.002 422.594 280.002H479.898C487.396 280.002 493.092 286.809 491.705 294.178C470.067 409.076 369.187 496 248 496C181.552 496 121.209 469.864 76.685 427.315L40.97 463.03C25.851 478.149 0 467.441 0 446.059V312C0 298.745 10.745 288 24 288Z" fill="CurrentColor"/>
</svg>
