<svg width="44" height="44" viewBox="0 0 640 512" fill="none" xmlns="http://www.w3.org/2000/svg">
<path d="M592 0H272C245.49 0 224 21.49 224 48V96H179.882C167.152 96.0001 154.943 101.057 145.941 110.059L46.059 209.941C37.0572 218.943 32.0001 231.152 32 243.882V352H24C10.745 352 0 362.745 0 376V392C0 405.255 10.745 416 24 416H64C64 469.019 106.981 512 160 512C213.019 512 256 469.019 256 416H384C384 469.019 426.981 512 480 512C533.019 512 576 469.019 576 416H616C629.255 416 640 405.255 640 392V48C640 21.49 618.51 0 592 0ZM160 464C133.533 464 112 442.467 112 416C112 389.533 133.533 368 160 368C186.467 368 208 389.533 208 416C208 442.467 186.467 464 160 464ZM224 256H80V243.882L179.882 144H224V256ZM480 464C453.533 464 432 442.467 432 416C432 389.533 453.533 368 480 368C506.467 368 528 389.533 528 416C528 442.467 506.467 464 480 464Z" fill="CurrentColor"/>
</svg>
