<svg width="44" height="44" viewBox="0 0 640 384" fill="none" xmlns="http://www.w3.org/2000/svg">
<path d="M320 0C377.99 0 425 47.01 425 105C425 162.99 377.99 210 320 210C262.01 210 215 162.99 215 105C215 47.01 262.01 0 320 0ZM433.463 217.366L393.481 207.37C344.313 242.735 284.715 234.843 246.52 207.37L206.538 217.366C174.485 225.379 152 254.177 152 287.216V348C152 367.882 168.118 384 188 384H452C471.882 384 488 367.882 488 348V287.216C488 254.177 465.515 225.379 433.463 217.366ZM528 236C566.66 236 598 204.66 598 166C598 127.34 566.66 96 528 96C489.34 96 458 127.34 458 166C458 204.66 489.34 236 528 236ZM112 236C150.66 236 182 204.66 182 166C182 127.34 150.66 96 112 96C73.34 96 42 127.34 42 166C42 204.66 73.34 236 112 236ZM136 348V287.216C136 270.665 140.593 255.012 148.703 241.617C118.715 256.337 85.367 250.325 63.013 234.247L36.358 240.911C14.99 246.252 0 265.452 0 287.477V328C0 341.255 10.745 352 24 352H136.169C136.062 350.669 136.005 349.335 136 348ZM603.642 240.91L576.987 234.246C549.062 254.332 516.097 253.479 491.201 241.464C499.369 254.893 504 270.601 504 287.216V348C504 349.347 503.932 350.678 503.831 352H616C629.255 352 640 341.255 640 328V287.477C640 265.452 625.01 246.252 603.642 240.91Z" fill="CurrentColor"/>
</svg>
